<svg width="40" height="25" viewBox="0 0 37.3333 23.0814" fill="none" xmlns="http://www.w3.org/2000/svg">
<path id="Vector" d="M35 1.24811V3.24811H31.8333L29 1.41478C26.8333 0.0814444 24.1667 -0.251889 21.8333 0.748111L18.6667 1.91478L15.5 0.581444C13.1667 -0.418556 10.5 -0.0852221 8.33333 1.24811L5.5 3.24811H2.33333V1.24811H0V18.7481H2.5V16.7481H4.16667L12 21.4148C14 22.5814 16.3333 23.0814 18.5 23.0814C20.8333 23.0814 23 22.4148 25 21.4148L29.5 18.7481L22.1667 7.74811L17.1667 9.08144C16.8333 9.08144 16.5 9.24811 16.1667 9.24811C15.5 9.24811 14.8333 9.08144 14.3333 8.74811C13.6667 8.41478 13.3333 7.74811 13.6667 7.08144C13.8333 6.74811 14 6.58144 14.3333 6.41478L22.8333 2.74811C24.3333 2.08144 26.1667 2.24811 27.6667 3.24811L31 5.74811H34.8333V14.4148H32.5L29.8333 15.9148L31 18.0814L33.1667 16.9148H34.8333V18.9148H37.3333V1.24811H35ZM13.3333 4.24811C12.5 4.58144 11.8333 5.24811 11.3333 6.08144C10.8333 6.91478 10.8333 7.91478 11.1667 8.91478C11.5 9.91478 12.1667 10.5814 13 11.0814C14 11.5814 15 11.7481 16 11.7481C16.5 11.7481 17 11.7481 17.6667 11.5814L21.1667 10.7481L26 18.0814L23.8333 19.4148C22.1667 20.4148 20.3333 20.7481 18.5 20.7481C16.6667 20.7481 14.8333 20.2481 13.1667 19.4148L4.5 14.4148H2.33333V5.74811H6.16667L9.66667 3.41478C11.1667 2.41478 13 2.24811 14.5 2.91478L15.3333 3.24811L13.3333 4.24811Z" fill="var(--fill-0, #692B7E)"/>
</svg>
